<svg width="10" height="6" viewBox="0 0 10 6" fill="none" xmlns="http://www.w3.org/2000/svg">
<path d="M10 2.99703C10 2.77745 9.92415 2.59347 9.76612 2.45104L7.33881 0.22552C7.19975 0.0771524 7.01644 4.30156e-07 6.80152 4.11367e-07C6.58028 3.92026e-07 6.39065 0.0712172 6.23894 0.207716C6.08723 0.344214 6.00506 0.522255 6.00506 0.72997C6.00506 0.937685 6.08091 1.11573 6.23894 1.25816L7.2756 2.23145L0.764854 2.23145C0.543615 2.23145 0.360303 2.30267 0.214918 2.45104C0.0695319 2.59941 -4.6474e-07 2.77745 -4.82899e-07 2.98516C-5.01058e-07 3.19288 0.0695318 3.37092 0.214917 3.51929C0.360303 3.66766 0.543615 3.74481 0.764854 3.75074L7.2756 3.75074L6.23894 4.7359C6.08723 4.87834 6.00506 5.05044 6.00506 5.24629C6.00506 5.45401 6.08091 5.63205 6.23894 5.77448C6.39697 5.91691 6.58028 6 6.80784 6C7.01011 6 7.19343 5.91691 7.34513 5.75668L9.77244 3.53116C9.92415 3.38279 10 3.21068 10 2.99703Z" fill="black"/>
</svg>
