<svg width="72" height="69" viewBox="0 0 72 69" fill="none" xmlns="http://www.w3.org/2000/svg">
<path d="M24.6277 20.8759H9.03912V0.308228H24.6277V5.05679H15.2931V8.04776H22.8542V12.6115H15.2931V15.9728H24.6277V20.8759Z" fill="white"/>
<path d="M62.8683 2.7447C64.7977 4.71821 65.6684 7.18492 65.6684 10.5463C65.6684 16.8676 61.6544 21.185 55.8362 21.185C50.0179 21.185 45.9412 16.9297 45.9412 10.6084C45.9412 4.28707 49.8927 0 55.8668 0C58.7916 0 61.0321 0.863621 62.8676 2.7447H62.8683ZM52.7868 10.7932C52.7868 14.6478 53.7821 16.5289 55.8048 16.5289C57.3918 16.5289 58.2632 15.5728 58.5744 13.4759C58.7296 12.6433 58.8236 11.163 58.8236 10.0531C58.8236 6.41441 57.8902 4.65681 55.8988 4.65681C53.9074 4.65681 52.7875 6.78415 52.7875 10.7932H52.7868Z" fill="white"/>
<path d="M10.3306 44.7842H4.29388V29.1499H0V24.2158H14.6245V29.1499H10.3306V44.7842Z" fill="white"/>
<path d="M31.9866 44.7842H16.3981V24.2166H31.9866V28.9651H22.652V31.9561H30.2131V36.5198H22.652V39.8812H31.9866V44.7842Z" fill="white"/>
<path d="M72 44.7842H65.6214V36.7978H60.7986V44.7842H54.42V24.2166H60.7986V31.8022H65.6214V24.2166H72V44.7842Z" fill="white"/>
<path d="M43.0948 50.5597C45.0242 52.5332 45.8949 54.9999 45.8949 58.3613C45.8949 64.6826 41.8809 69 36.0627 69C30.2444 69 26.1677 64.7447 26.1677 58.4234C26.1677 52.1021 30.1192 47.8157 36.094 47.8157C39.0187 47.8157 41.2593 48.6793 43.0948 50.5604V50.5597ZM33.0133 58.6082C33.0133 62.4628 34.0086 64.3439 36.0313 64.3439C37.6183 64.3439 38.4897 63.3878 38.8009 61.2909C38.9561 60.4583 39.0501 58.978 39.0501 57.8681C39.0501 54.2294 38.1167 52.4718 36.1253 52.4718C34.1339 52.4718 33.014 54.5992 33.014 58.6082H33.0133Z" fill="white"/>
<path d="M61.141 68.6916L55.478 59.6256C55.0423 58.8551 54.6379 58.1149 54.2022 57.3748C53.9843 56.974 53.7045 56.3573 53.2688 55.3702C53.6732 57.1589 53.7665 57.7135 53.7665 58.7316V68.6916H48.6011V48.1239H54.6066L59.4295 55.6482C60.5807 57.4982 61.2343 58.7012 61.6387 59.6263C61.2962 57.7452 61.141 55.8641 61.141 54.23V48.1246H66.337V68.6923H61.141V68.6916Z" fill="white"/>
<path d="M35.7965 21.2498C30.0232 21.2984 26.3059 17.2765 26.2522 10.8736C26.2242 7.47103 27.2284 4.49423 29.0857 2.53017C30.6631 0.877146 32.9037 0.0236453 35.6814 0.000705386C39.1447 -0.0283069 41.6855 1.31166 43.1731 3.92883C43.9015 5.1912 44.2229 6.23969 44.4258 8.18689L39.6478 8.5013C39.1549 7.65387 38.7376 6.77541 38.4401 5.83892C38.1493 4.91997 37.9662 3.97943 37.8369 2.99707C37.6313 3.08883 37.4474 3.16237 37.2731 3.25143C36.9879 3.39514 36.7081 3.54762 36.4337 3.70888C35.7774 4.09144 35.1538 4.52257 34.5642 5.00633C34.5458 5.02253 34.5254 5.03737 34.5063 5.05356C34.3109 5.18243 34.1292 5.33964 33.9651 5.52518C33.3993 6.04268 32.8819 6.60403 32.4162 7.21599C31.7688 8.07084 31.2473 8.99316 30.8674 9.99644C30.8531 10.0356 30.8374 10.0747 30.8231 10.1138C30.559 10.8209 30.3391 11.5435 30.2853 12.2958C30.2274 13.1129 30.369 13.9124 30.7019 14.6681C31.1043 15.5783 31.6871 16.2975 32.4346 16.8386C32.8703 17.1544 33.3612 17.4087 33.9045 17.6071C34.0754 17.6699 34.2578 17.7043 34.4628 17.7596C34.3191 17.1422 34.2034 16.5337 34.1455 15.9237C34.0808 15.2645 34.0835 14.6067 34.1884 13.9374C34.3892 12.6649 34.7337 11.4545 35.4404 10.3561C35.3696 12.4065 35.4527 14.4407 35.7461 16.483C35.8162 16.9668 35.8959 17.4492 35.9898 17.9343C36.0804 17.9168 36.1702 17.8999 36.2594 17.8837C36.5644 17.8284 36.8613 17.7785 37.1513 17.7049C37.845 17.5288 38.4721 17.209 39.0351 16.7745C39.8119 16.1727 40.4076 15.4278 40.7181 14.496C40.8603 14.0656 40.9543 13.6122 41.019 13.1622L44.4687 13.3524C44.1459 15.9217 43.5645 17.2569 42.173 18.7217C40.5941 20.3734 38.4162 21.2269 35.7951 21.2485L35.7965 21.2498Z" fill="white"/>
<path d="M12.5433 62.9869C12.5623 63.0213 12.58 63.0571 12.5991 63.0915C12.6032 63.0564 12.6066 63.022 12.6107 62.9876C12.5855 62.9876 12.563 62.9869 12.5433 62.9869Z" fill="white"/>
<path d="M21.7873 53.4912C21.7397 53.2389 21.6825 52.9919 21.5491 52.7801C21.3094 52.3975 20.9901 52.1863 20.5878 52.1641C20.3175 52.1485 20.0452 52.1512 19.7728 52.1458C19.1655 52.135 18.5583 52.1242 17.9517 52.1135C16.1557 52.0811 14.3583 52.0473 12.5623 52.0156C12.1961 52.0102 11.8291 52.0028 11.4621 51.9961C10.6922 51.9826 10.253 52.3779 10.0549 53.2571C10.0535 53.2658 10.0461 53.2726 10.042 53.2793C9.99091 56.0611 9.93985 58.8423 9.88879 61.6241C9.90581 61.7125 9.92011 61.8009 9.94053 61.8865C10.0876 62.4992 10.5437 62.9344 11.0823 62.9559C11.5479 62.9748 12.0143 62.9762 12.48 62.9863C12.5011 62.9877 12.5222 62.9863 12.5446 62.987C12.5637 63.0214 12.5814 63.0571 12.6005 63.0916C12.5569 63.4917 12.5147 63.8762 12.4718 64.2608C12.4316 64.6211 12.386 64.9801 12.3492 65.3417C12.3125 65.6824 12.3806 65.818 12.6549 65.984C12.7162 65.9847 12.7768 65.9867 12.8388 65.9874C12.9422 65.9051 13.0553 65.8336 13.1485 65.7384C13.4467 65.4321 13.7442 65.1271 14.0424 64.8201C14.3134 64.5408 14.583 64.2622 14.854 63.9822C15.1059 63.7224 15.3571 63.4613 15.6083 63.2002C15.7125 63.0909 15.8125 63.0416 15.9548 63.0443C16.7064 63.0612 17.456 63.076 18.2083 63.0909H18.2097C18.2553 63.0909 18.303 63.0909 18.3486 63.0929C19.0001 63.1044 19.651 63.1152 20.3018 63.126C20.9043 63.1361 21.3843 62.7502 21.5688 62.1092C21.5954 62.0201 21.6131 61.927 21.6348 61.8359C21.6396 61.5647 21.6451 61.2955 21.6498 61.0243L24.674 61.2429C24.3084 63.8027 23.7038 65.1251 22.2884 66.5629C20.6844 68.1849 18.497 68.9993 15.8799 68.975C10.1169 68.923 6.47724 64.8465 6.53579 58.4557C6.56779 55.0606 7.62305 52.1054 9.50958 50.1777C11.1136 48.5557 13.3643 47.7427 16.1366 47.767C19.5951 47.798 22.1046 49.1792 23.5459 51.8152C24.2505 53.0877 24.5535 54.1409 24.7217 56.0875L21.7383 56.2312C21.7554 55.3176 21.7717 54.4041 21.7887 53.4905L21.7873 53.4912Z" fill="white"/>
<path d="M36.5031 26.3606C38.0908 24.7103 40.3374 23.8635 43.1199 23.8507C46.5914 23.8352 49.1308 25.1873 50.6129 27.8139C51.338 29.081 51.6553 30.1336 51.852 32.0855L49.1628 32.2521C49.1608 32.238 49.1587 32.2231 49.156 32.209C49.1049 31.931 48.8244 31.7056 48.5378 31.7022C48.3254 31.7009 48.1137 31.7043 47.887 31.7049C47.8856 31.5268 47.874 31.3575 47.8836 31.1874C47.9224 30.4939 47.4342 29.8947 46.7439 29.8212C46.5764 29.8043 46.4062 29.803 46.2353 29.8036C46.1414 29.8036 46.0474 29.805 45.9555 29.803C45.9507 29.6194 45.9364 29.4366 45.9405 29.2558C45.9405 29.2382 45.9405 29.22 45.9412 29.2011C45.9548 28.8881 45.7063 28.6263 45.4408 28.5602C45.3945 28.5487 45.3462 28.5419 45.2992 28.5433C44.969 28.5514 44.7341 28.745 44.6735 29.0493C44.6647 29.1006 44.6592 29.1552 44.6586 29.2139C44.6586 29.4089 44.6647 29.6046 44.6694 29.8158C44.2576 29.8192 43.8572 29.8245 43.4562 29.8205C43.4311 29.8205 43.3895 29.7436 43.3868 29.6997C43.3745 29.523 43.3807 29.3448 43.3711 29.1667C43.3507 28.803 43.0879 28.5932 42.7999 28.5649C42.657 28.55 42.5085 28.5817 42.3792 28.66C42.3554 28.6742 42.3336 28.6897 42.3132 28.7059C42.1491 28.8354 42.0967 29.0203 42.0973 29.2301C42.0973 29.4312 42.096 29.6323 42.0953 29.8333C41.7358 29.8333 41.3866 29.8367 41.0434 29.8374C40.9679 29.8374 40.8937 29.838 40.8201 29.838C40.8126 29.6107 40.8065 29.4083 40.7997 29.2058V29.2045C40.7997 29.2045 40.7997 29.1977 40.7997 29.1944C40.7868 28.8334 40.526 28.5804 40.1672 28.5777C39.8282 28.575 39.5579 28.8307 39.5388 29.1795C39.528 29.4015 39.528 29.6242 39.5232 29.8522C39.385 29.8502 39.259 29.8502 39.1331 29.8468C38.7675 29.8367 38.4155 29.8812 38.118 30.1234C37.7572 30.4176 37.5931 30.7975 37.6101 31.2603C37.6162 31.4283 37.6135 31.597 37.6149 31.767C37.3963 31.7697 37.2043 31.763 37.0137 31.7738C36.9048 31.7792 36.7884 31.79 36.6924 31.8345C36.4017 31.9715 36.2955 32.2197 36.3642 32.549C36.4228 32.8331 36.6413 33.0159 36.9504 33.0321C37.1322 33.0402 37.3167 33.0469 37.4978 33.0375C37.6081 33.0314 37.6271 33.0705 37.6258 33.1664C37.6217 33.4612 37.6258 33.7567 37.6271 34.0516C37.6258 34.1373 37.6278 34.2229 37.6285 34.3127C37.4099 34.3134 37.2084 34.3073 37.0089 34.3174C36.6699 34.3343 36.4711 34.4517 36.3894 34.7425C36.2539 35.2181 36.5589 35.5926 37.0593 35.5906C37.2479 35.5906 37.4351 35.5872 37.6387 35.5852C37.6407 36.0123 37.6428 36.4252 37.6448 36.8583C37.4467 36.8583 37.2554 36.8624 37.0641 36.8563C36.6706 36.8435 36.3731 37.106 36.3656 37.4723C36.3588 37.8205 36.6924 38.1612 37.0369 38.1281C37.237 38.1106 37.4399 38.1308 37.6475 38.1342C37.6523 38.3454 37.6564 38.5559 37.6612 38.7671C37.6741 39.4742 38.2371 40.0207 38.9547 40.0274C39.1678 40.0294 39.3809 40.0254 39.5919 40.0227C39.594 40.2548 39.5831 40.4822 39.6022 40.7068C39.6321 41.0536 39.9221 41.3019 40.2564 41.2851C40.3041 41.283 40.349 41.2756 40.3919 41.2635C40.6724 41.1926 40.8712 40.9491 40.8746 40.6488C40.8773 40.4424 40.8753 40.2366 40.8773 40.0166C41.1878 40.0159 41.4941 40.0139 41.8066 40.0126C41.9217 40.0126 42.0374 40.0112 42.1538 40.0106C42.1552 40.0699 42.1552 40.13 42.1572 40.188C42.1593 40.327 42.1593 40.464 42.1607 40.6009C42.1641 40.9329 42.3349 41.1778 42.6529 41.2547C42.9783 41.335 43.4079 41.1805 43.4372 40.7015C43.4447 40.5888 43.446 40.4748 43.4474 40.3614C43.4488 40.242 43.4488 40.1219 43.4494 40.0004C43.8586 39.9991 44.2542 39.9984 44.6477 39.9964C44.6735 39.9964 44.7008 39.9964 44.7266 39.9964C44.728 40.2197 44.7294 40.4208 44.7328 40.6225C44.7355 40.8438 44.8267 41.0267 45.0126 41.1481C45.0881 41.196 45.163 41.2291 45.242 41.2466C45.3972 41.283 45.5572 41.2588 45.7131 41.1751C45.9535 41.0449 46.0141 40.8188 46.0134 40.5665C46.0113 40.3722 46.0106 40.1779 46.01 39.9863C46.2265 39.9842 46.4239 39.9795 46.622 39.9836C47.3192 39.9957 47.9442 39.3743 47.9224 38.7138C47.9149 38.4992 47.9278 38.2847 47.9312 38.064C48.1464 38.064 48.3418 38.0553 48.5385 38.0634C48.9021 38.0769 49.1887 37.8265 49.1996 37.4696C49.2037 37.3387 49.1689 37.2099 49.1049 37.0992L51.8758 37.2625C51.5443 39.8358 50.9554 41.171 49.555 42.6338C47.9693 44.2835 45.7833 45.1302 43.1574 45.1417C37.3725 45.1693 33.6634 41.1258 33.6335 34.7121C33.6178 31.3021 34.635 28.3233 36.5024 26.362L36.5031 26.3606Z" fill="white"/>
<path d="M38.8995 31.2409C38.9009 31.7456 38.9057 32.2509 38.9084 32.7563C38.92 34.6893 38.9322 36.623 38.9431 38.5574C38.9431 38.6586 38.9132 38.7612 39.0915 38.7591C39.1759 38.7578 39.2617 38.7571 39.3455 38.7564C39.8288 38.7497 40.3102 38.7456 40.7922 38.7429C41.3151 38.7389 41.8359 38.7369 42.3581 38.7335C43.2894 38.7288 44.2208 38.7288 45.1521 38.7234C45.3182 38.7234 45.483 38.7207 45.6498 38.7193C45.9398 38.7153 46.2305 38.7112 46.5219 38.7065C46.558 38.7065 46.5961 38.7065 46.6329 38.7052C46.6383 38.6633 46.6479 38.6269 46.6472 38.5925C46.6465 38.4974 46.6465 38.4036 46.6458 38.3084V38.3071C46.6458 38.3071 46.6472 38.3057 46.6458 38.3051C46.6445 37.8537 46.6397 37.4043 46.6363 36.9516C46.6288 35.9719 46.6227 34.9909 46.6159 34.0099C46.6131 33.4769 46.6091 32.9432 46.605 32.4102C46.6022 32.0364 46.6002 31.6626 46.5988 31.2895C46.5988 31.0783 46.6084 31.0776 46.3946 31.0783C46.1951 31.0797 45.9943 31.081 45.7955 31.081C44.0587 31.0918 42.3247 31.1033 40.5879 31.1134C40.5709 31.1134 40.5539 31.1134 40.5369 31.1134C40.2952 31.1141 40.0542 31.1168 39.8125 31.1181C39.5123 31.1208 39.2141 31.1228 38.9125 31.1249C38.907 31.1687 38.9002 31.2045 38.9002 31.2402L38.8995 31.2409ZM40.302 32.3906C40.8133 32.3859 41.3076 32.3798 41.8025 32.3758C42.7277 32.3704 43.653 32.367 44.5782 32.3636C44.7879 32.3616 44.9969 32.3602 45.2066 32.3602C45.2747 32.3596 45.3244 32.3636 45.3244 32.4594C45.3312 34.1017 45.3427 35.7439 45.3516 37.3848C45.3516 37.3996 45.3421 37.4145 45.3332 37.4435C43.6999 37.4536 42.0674 37.463 40.4205 37.4745C40.3544 37.4745 40.2877 37.4745 40.2196 37.4752C40.2155 36.6986 40.2115 35.9247 40.2067 35.1481C40.2067 35.1184 40.2067 35.0881 40.206 35.0584C40.2019 34.945 40.2006 34.831 40.2006 34.7123C40.1992 34.5895 40.1992 34.4707 40.2006 34.3547C40.2019 34.3378 40.2019 34.3196 40.2019 34.302C40.1978 33.6672 40.1944 33.0316 40.1904 32.3933C40.2285 32.3933 40.2652 32.392 40.3013 32.392L40.302 32.3906Z" fill="white"/>
</svg>
