<svg width="184" height="21" viewBox="0 0 184 21" fill="none" xmlns="http://www.w3.org/2000/svg">
<path d="M14.9043 20.2793H0V0.361328H14.9043V4.9599H5.97943V7.85638H13.2086V12.2759H5.97943V15.5311H14.9043V20.2793Z" fill="white"/>
<path d="M51.4663 2.72071C53.3111 4.63188 54.1436 7.02068 54.1436 10.2759C54.1436 16.3975 50.3057 20.5786 44.7429 20.5786C39.18 20.5786 35.2823 16.4576 35.2823 10.336C35.2823 4.21436 39.0603 0.0627136 44.7722 0.0627136C47.5686 0.0627136 49.7108 0.899055 51.4657 2.72071H51.4663ZM41.8274 10.515C41.8274 14.2478 42.779 16.0695 44.7129 16.0695C46.2303 16.0695 47.0634 15.1436 47.3609 13.1129C47.5093 12.3066 47.5992 10.8731 47.5992 9.79825C47.5992 6.27451 46.7067 4.57242 44.8028 4.57242C42.8988 4.57242 41.828 6.63256 41.828 10.515H41.8274Z" fill="white"/>
<path d="M65.4274 20.2721H59.6563V5.13238H55.5509V0.354126H69.5335V5.13238H65.4281V20.2728L65.4274 20.2721Z" fill="white"/>
<path d="M86.1328 20.2721H71.2285V0.354126H86.1328V4.9527H77.2079V7.84918H84.4372V12.2687H77.2079V15.5239H86.1328V20.2721Z" fill="white"/>
<path d="M124.391 20.2721H118.292V12.5379H113.681V20.2721H107.582V0.354126H113.681V7.70021H118.292V0.354126H124.391V20.2721Z" fill="white"/>
<path d="M161.777 3.14214C163.622 5.05331 164.455 7.44211 164.455 10.6973C164.455 16.8189 160.617 21 155.054 21C149.491 21 145.593 16.879 145.593 10.7574C145.593 4.6358 149.371 0.484802 155.084 0.484802C157.88 0.484802 160.022 1.32114 161.777 3.1428V3.14214ZM152.138 10.9365C152.138 14.6693 153.09 16.4909 155.024 16.4909C156.541 16.4909 157.374 15.5651 157.672 13.5343C157.82 12.7281 157.91 11.2945 157.91 10.2197C157.91 6.69594 157.018 4.99386 155.114 4.99386C153.21 4.99386 152.139 7.054 152.139 10.9365H152.138Z" fill="white"/>
<path d="M179.031 20.7014L173.617 11.9218C173.2 11.1756 172.814 10.4588 172.397 9.74208C172.189 9.35397 171.921 8.75676 171.505 7.80085C171.891 9.53299 171.981 10.0701 171.981 11.056V20.7014H167.042V0.782776H172.784L177.395 8.0694C178.496 9.861 179.121 11.026 179.507 11.9218C179.18 10.1001 179.031 8.27848 179.031 6.69597V0.782776H183.999V20.7008H179.031V20.7014Z" fill="white"/>
<path d="M25.5828 20.6413C20.0629 20.6883 16.5089 16.7935 16.4575 10.5928C16.4308 7.29772 17.3909 4.41496 19.1666 2.51294C20.6748 0.912129 22.817 0.0855892 25.4728 0.0633739C28.7841 0.0352781 31.2134 1.33291 32.6356 3.86742C33.3321 5.08991 33.6394 6.10528 33.8333 7.99097L29.2651 8.29545C28.7939 7.47479 28.3948 6.62408 28.1104 5.71717C27.8324 4.82725 27.6573 3.91642 27.5337 2.96509C27.3371 3.05395 27.1613 3.12517 26.9947 3.21141C26.7219 3.35059 26.4544 3.49825 26.1921 3.65441C25.5646 4.02489 24.9683 4.4424 24.4046 4.91088C24.3871 4.92657 24.3675 4.94094 24.3493 4.95662C24.1625 5.08142 23.9887 5.23366 23.8318 5.41334C23.2909 5.91449 22.7962 6.45812 22.351 7.05074C21.7319 7.87859 21.2333 8.77177 20.8701 9.74337C20.8564 9.78126 20.8415 9.81916 20.8278 9.85706C20.5752 10.5418 20.365 11.2416 20.3136 11.9701C20.2582 12.7614 20.3936 13.5357 20.7119 14.2674C21.0966 15.1489 21.6538 15.8454 22.3685 16.3694C22.7851 16.6752 23.2544 16.9215 23.7739 17.1136C23.9373 17.1744 24.1117 17.2077 24.3077 17.2613C24.1703 16.6634 24.0596 16.0741 24.0043 15.4834C23.9425 14.845 23.9451 14.208 24.0453 13.5598C24.2374 12.3275 24.5667 11.1553 25.2424 10.0916C25.1747 12.0773 25.2541 14.0473 25.5347 16.0251C25.6017 16.4936 25.6779 16.9607 25.7677 17.4305C25.8543 17.4135 25.9402 17.3972 26.0255 17.3815C26.3171 17.3279 26.6009 17.2796 26.8782 17.2084C27.5415 17.0378 28.141 16.7281 28.6793 16.3073C29.422 15.7245 29.9916 15.0032 30.2884 14.1008C30.4244 13.684 30.5143 13.2449 30.5761 12.8091L33.8744 12.9933C33.5658 15.4815 33.0099 16.7745 31.6794 18.193C30.1699 19.7925 28.0876 20.6191 25.5815 20.64L25.5828 20.6413Z" fill="white"/>
<path d="M132.567 15.1763C132.585 15.2097 132.602 15.2443 132.621 15.2776C132.625 15.2436 132.628 15.2103 132.632 15.177C132.608 15.177 132.586 15.1763 132.567 15.1763Z" fill="white"/>
<path d="M141.405 5.9805C141.36 5.73613 141.305 5.49699 141.177 5.29182C140.948 4.92135 140.643 4.71684 140.258 4.69528C140 4.68025 139.739 4.68286 139.479 4.67764C138.898 4.66718 138.318 4.65673 137.738 4.64627C136.021 4.61491 134.302 4.58224 132.585 4.55153C132.235 4.54631 131.884 4.53912 131.533 4.53258C130.797 4.51952 130.377 4.9024 130.188 5.75377C130.186 5.76227 130.179 5.7688 130.175 5.77533C130.127 8.46927 130.078 11.1625 130.029 13.8565C130.045 13.9421 130.059 14.0277 130.078 14.1106C130.219 14.7039 130.655 15.1254 131.17 15.1463C131.615 15.1646 132.061 15.1659 132.506 15.1757C132.526 15.177 132.547 15.1757 132.568 15.1763C132.586 15.2097 132.603 15.2443 132.622 15.2776C132.58 15.6651 132.54 16.0375 132.499 16.4099C132.46 16.7588 132.416 17.1064 132.381 17.4567C132.346 17.7866 132.411 17.918 132.674 18.0787C132.732 18.0793 132.79 18.0813 132.849 18.082C132.948 18.0022 133.056 17.933 133.146 17.8409C133.431 17.5442 133.715 17.2489 134 16.9516C134.259 16.6811 134.517 16.4112 134.776 16.1401C135.017 15.8885 135.257 15.6357 135.497 15.3828C135.597 15.277 135.693 15.2293 135.829 15.2319C136.547 15.2482 137.264 15.2626 137.983 15.277H137.985C138.028 15.277 138.074 15.277 138.117 15.2789C138.74 15.29 139.363 15.3005 139.985 15.3109C140.561 15.3207 141.02 14.947 141.196 14.3263C141.222 14.24 141.239 14.1499 141.259 14.0616C141.264 13.799 141.269 13.5383 141.274 13.2756L144.165 13.4873C143.816 15.9663 143.238 17.2469 141.884 18.6393C140.351 20.2101 138.259 20.9987 135.757 20.9752C130.247 20.9249 126.767 16.9771 126.823 10.7882C126.854 7.50029 127.863 4.63843 129.666 2.77169C131.2 1.20094 133.352 0.413605 136.002 0.437127C139.309 0.467183 141.708 1.80468 143.087 4.35748C143.76 5.58977 144.05 6.60972 144.211 8.49475L141.358 8.63392C141.375 7.74923 141.39 6.86454 141.406 5.97985L141.405 5.9805Z" fill="white"/>
<path d="M90.4518 2.43128C91.9691 0.83308 94.1178 0.0124203 96.7782 5.83616e-06C100.097 -0.0150222 102.525 1.29437 103.942 3.83803C104.636 5.0651 104.939 6.08439 105.127 7.97465L102.556 8.13604C102.554 8.12231 102.552 8.10794 102.549 8.09422C102.5 7.82502 102.232 7.60679 101.958 7.60352C101.755 7.60222 101.553 7.60548 101.336 7.60614C101.335 7.43364 101.324 7.26964 101.333 7.10498C101.37 6.4333 100.903 5.85309 100.243 5.78187C100.083 5.76553 99.9202 5.76423 99.7568 5.76488C99.667 5.76488 99.5772 5.76619 99.4893 5.76423C99.4847 5.5865 99.471 5.40943 99.4749 5.23432C99.4749 5.21734 99.4749 5.1997 99.4756 5.1814C99.4886 4.87823 99.251 4.62471 98.9972 4.56068C98.9529 4.54957 98.9067 4.54304 98.8618 4.54434C98.5461 4.55218 98.3215 4.73971 98.2636 5.03439C98.2551 5.08404 98.2499 5.13697 98.2493 5.19381C98.2493 5.38264 98.2551 5.57213 98.2597 5.77664C97.8659 5.77991 97.4831 5.78513 97.0997 5.78121C97.0756 5.78121 97.0359 5.70673 97.0333 5.66426C97.0216 5.49307 97.0275 5.32057 97.0183 5.14808C96.9988 4.7959 96.7476 4.59269 96.4722 4.56525C96.3355 4.55088 96.1936 4.58159 96.0699 4.65738C96.0472 4.6711 96.0263 4.68613 96.0068 4.70181C95.8499 4.82726 95.7998 5.00629 95.8005 5.2095C95.8005 5.40421 95.7992 5.59892 95.7985 5.79363C95.4548 5.79363 95.1209 5.79689 94.7928 5.79755C94.7206 5.79755 94.6496 5.7982 94.5793 5.7982C94.5722 5.57801 94.5663 5.38199 94.5598 5.18597V5.18467C94.5598 5.18467 94.5598 5.17813 94.5598 5.17487C94.5474 4.8253 94.2981 4.58028 93.9551 4.57767C93.6309 4.57505 93.3725 4.82269 93.3543 5.16049C93.3439 5.37546 93.3439 5.59108 93.3393 5.81192C93.2072 5.80996 93.0867 5.80996 92.9663 5.8067C92.6168 5.79689 92.2802 5.84002 91.9958 6.07459C91.6508 6.35946 91.4939 6.72732 91.5102 7.17555C91.516 7.33824 91.5134 7.50159 91.5147 7.66625C91.3058 7.66886 91.1222 7.66233 90.94 7.67278C90.8358 7.67801 90.7245 7.68846 90.6327 7.73159C90.3548 7.86423 90.2532 8.10467 90.319 8.42353C90.375 8.69861 90.5839 8.87567 90.8794 8.89136C91.0532 8.8992 91.2296 8.90573 91.4028 8.89658C91.5082 8.8907 91.5265 8.9286 91.5252 9.02138C91.5213 9.30691 91.5252 9.5931 91.5265 9.87863C91.5252 9.96161 91.5271 10.0446 91.5278 10.1315C91.3188 10.1321 91.1261 10.1263 90.9354 10.1361C90.6113 10.1524 90.4212 10.2661 90.3431 10.5477C90.2135 11.0083 90.5052 11.371 90.9836 11.369C91.1639 11.369 91.3429 11.3657 91.5375 11.3638C91.5395 11.7774 91.5414 12.1773 91.5434 12.5967C91.354 12.5967 91.1711 12.6007 90.9881 12.5948C90.6119 12.5824 90.3275 12.8365 90.3203 13.1913C90.3138 13.5285 90.6327 13.8584 90.9621 13.8264C91.1535 13.8094 91.3475 13.829 91.546 13.8323C91.5505 14.0368 91.5544 14.2407 91.559 14.4452C91.5714 15.1299 92.1097 15.6592 92.7958 15.6657C92.9995 15.6677 93.2033 15.6638 93.405 15.6611C93.407 15.8859 93.3966 16.1061 93.4148 16.3237C93.4434 16.6595 93.7207 16.9 94.0403 16.8836C94.0859 16.8817 94.1289 16.8745 94.1699 16.8627C94.4381 16.7941 94.6281 16.5583 94.6314 16.2675C94.634 16.0676 94.632 15.8683 94.634 15.6553C94.9308 15.6546 95.2237 15.6526 95.5225 15.6513C95.6325 15.6513 95.7432 15.65 95.8545 15.6494C95.8558 15.7069 95.8558 15.765 95.8577 15.8212C95.8597 15.9558 95.8597 16.0885 95.861 16.2211C95.8643 16.5426 96.0276 16.7798 96.3316 16.8542C96.6428 16.932 97.0535 16.7824 97.0815 16.3185C97.0887 16.2093 97.0899 16.0989 97.0912 15.9891C97.0926 15.8735 97.0926 15.7572 97.0932 15.6396C97.4844 15.6383 97.8626 15.6376 98.2388 15.6357C98.2636 15.6357 98.2896 15.6357 98.3143 15.6357C98.3156 15.8519 98.3169 16.0466 98.3202 16.242C98.3228 16.4563 98.41 16.6334 98.5877 16.751C98.66 16.7974 98.7316 16.8294 98.8071 16.8464C98.9555 16.8817 99.1085 16.8582 99.2575 16.7771C99.4873 16.651 99.5453 16.4321 99.5446 16.1878C99.5427 15.9996 99.542 15.8114 99.5413 15.6259C99.7483 15.6239 99.9371 15.6193 100.127 15.6232C100.793 15.635 101.391 15.0332 101.37 14.3936C101.363 14.1858 101.375 13.978 101.378 13.7643C101.584 13.7643 101.771 13.7559 101.959 13.7637C102.306 13.7768 102.581 13.5344 102.591 13.1887C102.595 13.062 102.562 12.9372 102.5 12.83L105.15 12.9881C104.833 15.4802 104.27 16.7732 102.931 18.1898C101.415 19.7873 99.3246 20.6073 96.814 20.6184C91.283 20.6452 87.7368 16.7294 87.7081 10.5183C87.6931 7.21606 88.6656 4.33134 90.4511 2.43193L90.4518 2.43128Z" fill="white"/>
<path d="M92.743 7.15726C92.7443 7.64599 92.7489 8.13538 92.7515 8.62477C92.7626 10.4967 92.7743 12.3694 92.7847 14.2426C92.7847 14.3406 92.7561 14.44 92.9266 14.438C93.0073 14.4367 93.0893 14.436 93.1694 14.4354C93.6316 14.4288 94.0918 14.4249 94.5526 14.4223C95.0525 14.4184 95.5505 14.4164 96.0498 14.4132C96.9402 14.4086 97.8307 14.4086 98.7212 14.4034C98.88 14.4034 99.0375 14.4008 99.197 14.3994C99.4743 14.3955 99.7522 14.3916 100.031 14.387C100.065 14.387 100.102 14.387 100.137 14.3857C100.142 14.3452 100.151 14.3099 100.151 14.2766C100.15 14.1845 100.15 14.0937 100.149 14.0015V14.0002C100.149 14.0002 100.151 13.9989 100.149 13.9983C100.148 13.5611 100.143 13.126 100.14 12.6876C100.133 11.7388 100.127 10.7888 100.121 9.83877C100.118 9.32259 100.114 8.80576 100.11 8.28958C100.108 7.9276 100.106 7.56563 100.104 7.2043C100.104 6.99979 100.114 6.99913 99.9091 6.99979C99.7184 7.0011 99.5264 7.0024 99.3363 7.0024C97.6758 7.01286 96.0179 7.02396 94.3573 7.03376C94.3411 7.03376 94.3248 7.03376 94.3085 7.03376C94.0774 7.03442 93.847 7.03703 93.6159 7.03834C93.3289 7.04095 93.0438 7.04291 92.7554 7.04487C92.7502 7.08734 92.7437 7.12197 92.7437 7.1566L92.743 7.15726ZM94.084 8.27063C94.5728 8.26606 95.0454 8.26018 95.5186 8.25626C96.4032 8.25103 97.2878 8.24777 98.1724 8.2445C98.3729 8.24254 98.5728 8.24123 98.7732 8.24123C98.8383 8.24058 98.8859 8.2445 98.8859 8.33728C98.8924 9.92764 98.9034 11.518 98.9119 13.107C98.9119 13.1214 98.9028 13.1358 98.8943 13.1639C97.3327 13.1737 95.7718 13.1828 94.1972 13.1939C94.1341 13.1939 94.0703 13.1939 94.0052 13.1946C94.0013 12.4425 93.9974 11.6931 93.9928 10.941C93.9928 10.9123 93.9928 10.8829 93.9922 10.8541C93.9883 10.7444 93.987 10.634 93.987 10.519C93.9857 10.4 93.9857 10.285 93.987 10.1727C93.9883 10.1563 93.9883 10.1387 93.9883 10.1217C93.9844 9.50685 93.9811 8.89136 93.9772 8.27325C94.0137 8.27325 94.0488 8.27194 94.0833 8.27194L94.084 8.27063Z" fill="white"/>
</svg>
