<svg width="84" height="81" viewBox="0 0 84 81" fill="none" xmlns="http://www.w3.org/2000/svg">
<path d="M28.7323 24.5066H10.5457V0.361964H28.7323V5.93637H17.8419V9.4475H26.6632V14.8049H17.8419V18.7509H28.7323V24.5066Z" fill="black"/>
<path d="M73.3463 3.22204C75.5973 5.53877 76.6132 8.43448 76.6132 12.3804C76.6132 19.8011 71.9301 24.8694 65.1422 24.8694C58.3542 24.8694 53.5981 19.874 53.5981 12.4533C53.5981 5.03265 58.2081 0 65.1779 0C68.5901 0 71.2049 1.01382 73.3463 3.22204ZM61.5846 12.6703C61.5846 17.1953 62.7458 19.4035 65.1056 19.4035C66.9571 19.4035 67.9738 18.2812 68.3368 15.8195C68.5179 14.8421 68.6275 13.1044 68.6275 11.8015C68.6275 7.52997 67.5385 5.46669 65.2152 5.46669C62.892 5.46669 61.5846 7.96401 61.5846 12.6703Z" fill="black"/>
<path d="M12.0524 52.5727H5.00953V34.2195H0V28.4273H17.062V34.2195H12.0524V52.5727Z" fill="black"/>
<path d="M37.3177 52.5727H19.1311V28.4281H37.3177V34.0025H26.4273V37.5136H35.2486V42.871H26.4273V46.817H37.3177V52.5727Z" fill="black"/>
<path d="M84 52.5727H76.5584V43.1973H70.9317V52.5727H63.4901V28.4281H70.9317V37.333H76.5584V28.4281H84V52.5727Z" fill="black"/>
<path d="M50.2772 59.3526C52.5282 61.6694 53.5441 64.5651 53.5441 68.511C53.5441 75.9317 48.861 81 42.0731 81C35.2851 81 30.529 76.0046 30.529 68.5839C30.529 61.1633 35.139 56.1314 42.1096 56.1314C45.5218 56.1314 48.1358 57.1444 50.2772 59.3526ZM38.5155 68.8009C38.5155 73.3259 39.6767 75.5341 42.0365 75.5341C43.888 75.5341 44.9047 74.4118 45.2677 71.9501C45.4488 70.9727 45.5584 69.235 45.5584 67.9321C45.5584 63.6606 44.4694 61.5973 42.1461 61.5973C39.8229 61.5973 38.5155 64.0946 38.5155 68.8009Z" fill="black"/>
<path d="M71.3312 80.638L64.7244 69.9953C64.216 69.0908 63.7442 68.222 63.2359 67.3531C62.9817 66.8826 62.6553 66.1587 62.1469 64.9999C62.6187 67.0996 62.7276 67.7507 62.7276 68.9459V80.638H56.7013V56.4934H63.7077L69.3344 65.3262C70.6775 67.498 71.44 68.9102 71.9118 69.9961C71.5123 67.7879 71.3312 65.5797 71.3312 63.6614V56.4942H77.3932V80.6388L71.3312 80.638Z" fill="black"/>
<path d="M41.7625 24.9454C35.027 25.0025 30.6902 20.2811 30.6275 12.7646C30.5949 8.77031 31.7665 5.27581 33.9333 2.97017C35.7736 1.02966 38.3876 0.0277216 41.6283 0.000792044C45.6688 -0.0332659 48.633 1.53973 50.3685 4.61207C51.2184 6.09399 51.5933 7.32483 51.83 9.61067L46.2558 9.97976C45.6807 8.98495 45.1938 7.95371 44.8467 6.85435C44.5075 5.77559 44.2939 4.67148 44.143 3.51826C43.9031 3.62598 43.6886 3.71231 43.4853 3.81686C43.1525 3.98557 42.8261 4.16457 42.506 4.35387C41.7403 4.80296 41.0127 5.30907 40.3249 5.87697C40.3034 5.89598 40.2796 5.9134 40.2573 5.93241C40.0294 6.08369 39.8173 6.26824 39.6259 6.48605C38.9658 7.09355 38.3622 7.75253 37.8189 8.47091C37.0635 9.47444 36.4551 10.5572 36.0119 11.7349C35.9952 11.7809 35.977 11.8268 35.9603 11.8727C35.6521 12.7028 35.3956 13.5511 35.3328 14.4342C35.2653 15.3934 35.4305 16.332 35.8189 17.219C36.2883 18.2875 36.9682 19.1318 37.8403 19.7671C38.3487 20.1377 38.9214 20.4363 39.5552 20.6692C39.7546 20.7428 39.9674 20.7832 40.2065 20.8482C40.0389 20.1235 39.9039 19.409 39.8364 18.693C39.7609 17.9192 39.7641 17.147 39.8864 16.3613C40.1207 14.8675 40.5226 13.4465 41.3471 12.1571C41.2645 14.5641 41.3614 16.9521 41.7037 19.3496C41.7855 19.9175 41.8785 20.4839 41.9881 21.0533C42.0937 21.0327 42.1986 21.0129 42.3026 20.9939C42.6585 20.929 43.0048 20.8704 43.3431 20.784C44.1525 20.5773 44.884 20.2019 45.5409 19.6918C46.4472 18.9853 47.1422 18.1109 47.5044 17.0171C47.6704 16.5118 47.78 15.9795 47.8554 15.4512L51.8801 15.6746C51.5036 18.6907 50.8253 20.2581 49.2017 21.9776C47.3598 23.9166 44.8189 24.9185 41.7609 24.9439L41.7625 24.9454Z" fill="black"/>
<path d="M14.6338 73.9413C14.6561 73.9817 14.6767 74.0237 14.699 74.0641C14.7037 74.0229 14.7077 73.9825 14.7125 73.9421C14.6831 73.9421 14.6569 73.9413 14.6338 73.9413Z" fill="black"/>
<path d="M25.4186 62.7941C25.363 62.4978 25.2963 62.208 25.1406 61.9593C24.861 61.5102 24.4885 61.2623 24.0191 61.2361C23.7037 61.2179 23.386 61.2211 23.0683 61.2147C22.3598 61.2021 21.6513 61.1894 20.9436 61.1767C18.8483 61.1387 16.7514 61.0991 14.6561 61.0619C14.2288 61.0555 13.8006 61.0468 13.3725 61.0389C12.4742 61.0231 11.9619 61.4872 11.7307 62.5192C11.7291 62.5295 11.7204 62.5374 11.7156 62.5454C11.6561 65.811 11.5965 69.0758 11.5369 72.3414C11.5568 72.4451 11.5735 72.5489 11.5973 72.6495C11.7689 73.3687 12.301 73.8795 12.9293 73.9049C13.4726 73.927 14.0167 73.9286 14.56 73.9405C14.5846 73.9421 14.6092 73.9405 14.6354 73.9413C14.6577 73.9817 14.6783 74.0237 14.7006 74.0641C14.6497 74.5338 14.6005 74.9852 14.5504 75.4367C14.5036 75.8596 14.4504 76.281 14.4075 76.7055C14.3646 77.1055 14.444 77.2647 14.7641 77.4596C14.8356 77.4604 14.9063 77.4627 14.9786 77.4635C15.0993 77.3669 15.2311 77.2829 15.34 77.1713C15.6878 76.8117 16.0349 76.4537 16.3828 76.0933C16.699 75.7654 17.0135 75.4383 17.3296 75.1096C17.6235 74.8046 17.9166 74.4981 18.2097 74.1916C18.3312 74.0633 18.448 74.0055 18.614 74.0086C19.4909 74.0284 20.3654 74.0459 21.243 74.0633H21.2446C21.2979 74.0633 21.3535 74.0633 21.4067 74.0657C22.1668 74.0791 22.9261 74.0918 23.6855 74.1045C24.3884 74.1163 24.9484 73.6633 25.1636 72.9109C25.1946 72.8063 25.2152 72.697 25.2407 72.5901C25.2462 72.2717 25.2526 71.9556 25.2581 71.6372L28.7863 71.8939C28.3598 74.8989 27.6545 76.4513 26.0032 78.1391C24.1318 80.0432 21.5798 80.9992 18.5266 80.9707C11.803 80.9097 7.55679 76.1242 7.6251 68.6219C7.66243 64.6364 8.89356 61.1672 11.0945 58.9043C12.9658 57.0003 15.5917 56.0459 18.8261 56.0744C22.861 56.1108 25.7887 57.7321 27.4702 60.8266C28.2923 62.3204 28.6457 63.5568 28.8419 65.8419L25.3614 66.0106C25.3813 64.9381 25.4003 63.8657 25.4202 62.7933L25.4186 62.7941Z" fill="black"/>
<path d="M42.587 30.9452C44.4392 29.0078 47.0604 28.0138 50.3066 27.9988C54.3566 27.9806 57.3193 29.5678 59.0484 32.6512C59.8944 34.1387 60.2645 35.3743 60.494 37.6657L57.3566 37.8613C57.3542 37.8447 57.3519 37.8272 57.3487 37.8106C57.2891 37.4843 56.9619 37.2198 56.6275 37.2158C56.3797 37.2142 56.1326 37.2182 55.8681 37.219C55.8666 37.0099 55.8531 36.8111 55.8642 36.6115C55.9095 35.7972 55.34 35.0939 54.5345 35.0076C54.3392 34.9878 54.1406 34.9862 53.9412 34.987C53.8316 34.987 53.722 34.9886 53.6148 34.9862C53.6092 34.7707 53.5925 34.5561 53.5973 34.3438C53.5973 34.3232 53.5973 34.3019 53.5981 34.2797C53.614 33.9122 53.3241 33.6049 53.0143 33.5272C52.9603 33.5138 52.9039 33.5059 52.8491 33.5074C52.4639 33.5169 52.1898 33.7443 52.1191 34.1015C52.1088 34.1617 52.1025 34.2258 52.1017 34.2947C52.1017 34.5236 52.1088 34.7533 52.1144 35.0012C51.6338 35.0052 51.1668 35.0115 50.699 35.0068C50.6696 35.0068 50.6211 34.9165 50.618 34.865C50.6037 34.6575 50.6108 34.4484 50.5997 34.2393C50.5758 33.8124 50.2693 33.566 49.9333 33.5328C49.7665 33.5154 49.5933 33.5526 49.4424 33.6445C49.4146 33.6611 49.3892 33.6793 49.3654 33.6983C49.1739 33.8504 49.1128 34.0674 49.1136 34.3137C49.1136 34.5498 49.112 34.7858 49.1112 35.0218C48.6918 35.0218 48.2844 35.0258 47.884 35.0266C47.7959 35.0266 47.7093 35.0274 47.6235 35.0274C47.6148 34.7605 47.6076 34.5228 47.5997 34.2852V34.2836C47.5997 34.2836 47.5997 34.2757 47.5997 34.2718C47.5846 33.848 47.2804 33.551 46.8618 33.5478C46.4662 33.5447 46.1509 33.8449 46.1287 34.2543C46.116 34.5149 46.116 34.7763 46.1104 35.044C45.9492 35.0416 45.8022 35.0416 45.6553 35.0377C45.2288 35.0258 44.8181 35.0781 44.471 35.3624C44.05 35.7077 43.8586 36.1537 43.8785 36.697C43.8856 36.8942 43.8824 37.0922 43.884 37.2918C43.6291 37.295 43.4051 37.2871 43.1827 37.2997C43.0556 37.3061 42.9198 37.3188 42.8078 37.371C42.4686 37.5318 42.3447 37.8233 42.4249 38.2098C42.4932 38.5433 42.7482 38.7579 43.1088 38.7769C43.3209 38.7864 43.5361 38.7943 43.7474 38.7832C43.8761 38.7761 43.8983 38.8221 43.8967 38.9345C43.892 39.2806 43.8967 39.6276 43.8983 39.9737C43.8967 40.0743 43.8991 40.1749 43.8999 40.2802C43.645 40.281 43.4098 40.2739 43.1771 40.2858C42.7816 40.3056 42.5496 40.4434 42.4543 40.7847C42.2963 41.3431 42.6521 41.7827 43.2359 41.7803C43.4559 41.7803 43.6743 41.7764 43.9118 41.774C43.9142 42.2754 43.9166 42.7601 43.919 43.2686C43.6878 43.2686 43.4647 43.2733 43.2415 43.2662C42.7824 43.2512 42.4353 43.5593 42.4265 43.9894C42.4186 44.398 42.8078 44.798 43.2097 44.7592C43.4432 44.7386 43.6799 44.7624 43.9222 44.7663C43.9277 45.0143 43.9325 45.2614 43.938 45.5093C43.9531 46.3394 44.61 46.9809 45.4472 46.9888C45.6958 46.9912 45.9444 46.9864 46.1906 46.9833C46.193 47.2557 46.1803 47.5227 46.2025 47.7864C46.2375 48.1935 46.5759 48.485 46.9658 48.4652C47.0214 48.4628 47.0739 48.4541 47.1239 48.4398C47.4511 48.3567 47.6831 48.0708 47.6871 47.7183C47.6902 47.4759 47.6878 47.2344 47.6902 46.9762C48.0524 46.9754 48.4098 46.973 48.7744 46.9714C48.9087 46.9714 49.0437 46.9698 49.1795 46.969C49.1811 47.0387 49.1811 47.1092 49.1835 47.1773C49.1859 47.3405 49.1859 47.5013 49.1875 47.6621C49.1914 48.0517 49.3908 48.3393 49.7617 48.4296C50.1414 48.5238 50.6426 48.3424 50.6767 47.7801C50.6855 47.6478 50.687 47.514 50.6886 47.3809C50.6902 47.2407 50.6902 47.0997 50.691 46.9571C51.1684 46.9556 51.6299 46.9548 52.089 46.9524C52.1191 46.9524 52.1509 46.9524 52.1811 46.9524C52.1827 47.2146 52.1843 47.4506 52.1882 47.6874C52.1914 47.9472 52.2979 48.1618 52.5147 48.3044C52.6029 48.3606 52.6902 48.3995 52.7824 48.4201C52.9635 48.4628 53.1501 48.4343 53.332 48.3361C53.6124 48.1832 53.6831 47.9179 53.6823 47.6217C53.6799 47.3936 53.6791 47.1655 53.6783 46.9405C53.9309 46.9381 54.1612 46.9326 54.3924 46.9373C55.2057 46.9516 55.9349 46.2221 55.9095 45.4467C55.9007 45.1948 55.9158 44.943 55.9198 44.684C56.1708 44.684 56.3987 44.6737 56.6283 44.6832C57.0524 44.699 57.3868 44.4052 57.3995 43.9862C57.4043 43.8325 57.3638 43.6812 57.2891 43.5513L60.5218 43.743C60.135 46.7639 59.448 48.3313 57.8141 50.0485C55.9643 51.985 53.4138 52.9791 50.3503 52.9925C43.6013 53.025 39.274 48.2783 39.2391 40.7491C39.2208 36.7461 40.4075 33.2492 42.5862 30.9468L42.587 30.9452Z" fill="black"/>
<path d="M45.3828 36.674C45.3844 37.2665 45.39 37.8597 45.3932 38.453C45.4067 40.7222 45.421 42.9922 45.4337 45.263C45.4337 45.3818 45.3987 45.5022 45.6068 45.4998C45.7053 45.4982 45.8054 45.4974 45.9031 45.4966C46.467 45.4887 47.0286 45.4839 47.5909 45.4808C48.201 45.476 48.8086 45.4736 49.4178 45.4697C50.5044 45.4641 51.5909 45.4641 52.6775 45.4578C52.8713 45.4578 53.0635 45.4546 53.2581 45.453C53.5965 45.4483 53.9357 45.4435 54.2756 45.438C54.3177 45.438 54.3622 45.438 54.4051 45.4364C54.4114 45.3873 54.4226 45.3445 54.4218 45.3041C54.421 45.1925 54.421 45.0824 54.4202 44.9707V44.9691C54.4202 44.9691 54.4218 44.9675 54.4202 44.9667C54.4186 44.4369 54.413 43.9094 54.409 43.3779C54.4003 42.2278 54.3932 41.0762 54.3852 39.9246C54.382 39.2989 54.3773 38.6724 54.3725 38.0466C54.3693 37.6078 54.367 37.1691 54.3654 36.7311C54.3654 36.4831 54.3765 36.4824 54.1271 36.4831C53.8944 36.4847 53.66 36.4863 53.4281 36.4863C51.4019 36.499 49.3789 36.5125 47.3527 36.5243C47.3328 36.5243 47.3129 36.5243 47.2931 36.5243C47.0111 36.5251 46.7299 36.5283 46.448 36.5299C46.0977 36.533 45.7498 36.5354 45.3979 36.5378C45.3916 36.5893 45.3836 36.6313 45.3836 36.6732L45.3828 36.674ZM47.0191 38.0237C47.6156 38.0181 48.1922 38.011 48.7697 38.0062C49.8491 37.9999 50.9285 37.996 52.0079 37.992C52.2526 37.9896 52.4964 37.988 52.7411 37.988C52.8205 37.9872 52.8785 37.992 52.8785 38.1045C52.8864 40.0323 52.8999 41.9601 52.9102 43.8864C52.9102 43.9038 52.8991 43.9212 52.8888 43.9553C50.9833 43.9672 49.0786 43.9783 47.1573 43.9917C47.0802 43.9917 47.0024 43.9917 46.923 43.9925C46.9182 43.0809 46.9134 42.1724 46.9079 41.2608C46.9079 41.2259 46.9079 41.1903 46.9071 41.1554C46.9023 41.0224 46.9007 40.8885 46.9007 40.7491C46.8991 40.6049 46.8991 40.4655 46.9007 40.3293C46.9023 40.3095 46.9023 40.2881 46.9023 40.2675C46.8975 39.5222 46.8936 38.7761 46.8888 38.0268C46.9333 38.0268 46.9762 38.0253 47.0183 38.0253L47.0191 38.0237Z" fill="black"/>
</svg>
