<svg width="18" height="18" viewBox="0 0 18 18" fill="none" xmlns="http://www.w3.org/2000/svg">
<path d="M10.5724 0C6.46873 0 3.1443 3.25585 3.1443 7.27107C3.14218 8.59385 3.51052 9.89189 4.20927 11.0241L0.607923 14.5494L0.620457 14.5617C0.236066 14.9218 4.44689e-08 15.4331 4.44689e-08 16.0109C-0.000232076 17.1272 0.908287 18.0002 2.04753 18C2.62946 17.9998 3.14987 17.7719 3.52126 17.401L3.53032 17.4099L7.2461 13.7723C8.27825 14.2796 9.41743 14.5433 10.5724 14.5421C14.6763 14.5421 18 11.2868 18 7.27107C18 3.25585 14.676 0 10.5724 0ZM10.6174 11.683C8.05248 11.683 5.97478 9.64849 5.97478 7.1386C5.97478 4.62918 8.05248 2.59418 10.6174 2.59418C13.1823 2.59418 15.2596 4.62895 15.2596 7.1386C15.2598 9.64849 13.1823 11.683 10.6174 11.683Z" fill="black"/>
</svg>
